<?xml version="1.0" encoding="UTF-8"?>
<svg xmlns="http://www.w3.org/2000/svg" xmlns:xlink="http://www.w3.org/1999/xlink" width="512px" height="512px" viewBox="0 0 512 512" version="1.1">
<g id="surface1">
<path style=" stroke:none;fill-rule:nonzero;fill:rgb(7.843138%,4.313726%,4.313726%);fill-opacity:1;" d="M 0 0 C 168.960938 0 337.921875 0 512 0 C 512 168.960938 512 337.921875 512 512 C 343.039062 512 174.078125 512 0 512 C 0 343.039062 0 174.078125 0 0 Z M 0 0 "/>
<path style=" stroke:none;fill-rule:nonzero;fill:rgb(72.549021%,26.666668%,23.529412%);fill-opacity:1;" d="M 262.5625 95.179688 C 268.085938 97.230469 272.75 99.675781 275.972656 104.800781 C 278.308594 110.820312 278.097656 116.722656 277.332031 123.078125 C 275.300781 127.230469 273.085938 130.433594 270.21875 134.027344 C 268.597656 138.199219 268.597656 138.199219 271.460938 143.378906 C 272.710938 145.617188 273.988281 147.839844 275.28125 150.050781 C 282.375 162.679688 288.628906 175.546875 294.5 188.789062 C 298.070312 196.566406 300.898438 202.230469 308.511719 206.769531 C 315.976562 208.203125 320.445312 206.957031 326.667969 202.972656 C 329.398438 201 332.097656 198.976562 334.769531 196.921875 C 335.640625 196.253906 336.511719 195.585938 337.410156 194.898438 C 344.246094 189.628906 351.003906 184.261719 357.742188 178.871094 C 360.277344 176.851562 360.277344 176.851562 362.867188 174.789062 C 366.632812 171.78125 370.394531 168.765625 374.152344 165.742188 C 373.613281 164.117188 373.070312 162.496094 372.511719 160.820312 C 370.890625 146.0625 370.890625 146.0625 374.117188 139.511719 C 377.765625 134.988281 381.691406 131.285156 387.28125 129.640625 C 394.671875 129.105469 400.46875 129.230469 406.972656 132.921875 C 413.941406 140.664062 415.6875 145.300781 415.527344 155.488281 C 415.039062 160.675781 413.644531 163.433594 410.257812 167.382812 C 403.890625 172.503906 400.277344 174.316406 392.207031 173.949219 C 392.089844 175.742188 392.089844 175.742188 391.976562 177.570312 C 391.105469 189.660156 389.3125 201.265625 386.871094 213.128906 C 383.703125 229.019531 380.859375 244.929688 378.257812 260.921875 C 375.601562 277.089844 372.851562 293.230469 369.847656 309.332031 C 369.367188 311.976562 369.367188 311.976562 368.882812 314.671875 C 365.644531 331.675781 365.644531 331.675781 361.027344 338.050781 C 351.117188 343.601562 342.253906 343.6875 331.066406 343.636719 C 329.242188 343.648438 327.414062 343.660156 325.53125 343.671875 C 319.515625 343.703125 313.5 343.695312 307.480469 343.6875 C 303.289062 343.695312 299.097656 343.703125 294.90625 343.710938 C 286.132812 343.726562 277.359375 343.722656 268.582031 343.707031 C 258.457031 343.6875 248.328125 343.710938 238.199219 343.753906 C 228.433594 343.796875 218.664062 343.800781 208.898438 343.789062 C 204.753906 343.789062 200.605469 343.796875 196.460938 343.820312 C 190.667969 343.84375 184.875 343.824219 179.078125 343.796875 C 176.511719 343.820312 176.511719 343.820312 173.894531 343.847656 C 164.136719 343.746094 158.324219 343.054688 150.972656 336.410156 C 145.234375 325.070312 143.710938 312.355469 141.492188 299.9375 C 141.074219 297.648438 140.65625 295.363281 140.238281 293.078125 C 139.136719 287.066406 138.050781 281.050781 136.96875 275.039062 C 135.886719 269.046875 134.789062 263.054688 133.695312 257.0625 C 132.011719 247.832031 130.335938 238.59375 128.667969 229.355469 C 127.222656 221.359375 125.761719 213.363281 124.273438 205.375 C 123.964844 203.695312 123.652344 202.015625 123.332031 200.285156 C 122.765625 197.234375 122.199219 194.1875 121.621094 191.136719 C 121.253906 189.152344 121.253906 189.152344 120.882812 187.125 C 120.667969 185.996094 120.457031 184.867188 120.238281 183.703125 C 119.792969 180.511719 119.792969 180.511719 119.792969 173.949219 C 118.070312 173.8125 116.34375 173.679688 114.5625 173.539062 C 107.738281 172.195312 104.964844 170.605469 100.101562 165.742188 C 95.984375 158.789062 95.289062 152.316406 96.820312 144.410156 C 100.269531 138.300781 104.667969 134.183594 110.5625 130.460938 C 117.871094 129.070312 124.589844 129.179688 130.972656 133.117188 C 134.535156 136.011719 137.417969 138.632812 139.488281 142.769531 C 139.644531 145.738281 139.699219 148.71875 139.691406 151.691406 C 139.699219 154.074219 139.699219 154.074219 139.707031 156.507812 C 139.488281 160.820312 139.488281 160.820312 137.847656 165.742188 C 149.777344 176.039062 161.808594 185.992188 174.511719 195.328125 C 177.5 197.542969 180.4375 199.828125 183.332031 202.160156 C 189.6875 207.199219 193.738281 207.320312 201.847656 206.769531 C 209.875 203.300781 212.707031 197.988281 216.207031 190.359375 C 216.75 189.222656 217.292969 188.089844 217.851562 186.917969 C 219.652344 183.152344 221.414062 179.371094 223.179688 175.589844 C 224.515625 172.777344 225.851562 169.964844 227.191406 167.152344 C 230.292969 160.644531 233.367188 154.128906 236.429688 147.601562 C 237.488281 145.378906 238.609375 143.191406 239.78125 141.027344 C 241.570312 137.683594 241.570312 137.683594 241.230469 132.921875 C 238.90625 130.324219 238.90625 130.324219 236.308594 128 C 234.296875 123.980469 234.390625 121.203125 234.359375 116.71875 C 234.335938 115.300781 234.3125 113.882812 234.289062 112.421875 C 234.914062 105.597656 237.035156 102.546875 242.152344 98.050781 C 249.320312 94.402344 254.675781 93.808594 262.5625 95.179688 Z M 262.5625 95.179688 "/>
<path style=" stroke:none;fill-rule:nonzero;fill:rgb(15.294118%,2.352941%,1.176471%);fill-opacity:1;" d="M 362.667969 333.128906 C 363.207031 334.753906 363.75 336.378906 364.308594 338.050781 C 362.71875 339.066406 361.125 340.082031 359.488281 341.128906 C 354.414062 344.050781 354.414062 344.050781 352.820312 347.898438 C 291.085938 347.898438 229.351562 347.898438 165.742188 347.898438 C 165.742188 346.8125 165.742188 345.730469 165.742188 344.617188 C 163.914062 344.378906 162.089844 344.140625 160.207031 343.898438 C 154.257812 342.972656 154.257812 342.972656 150.972656 341.332031 C 151.515625 339.707031 152.058594 338.085938 152.617188 336.410156 C 153.597656 337.210938 154.578125 338.007812 155.589844 338.832031 C 163.300781 342.519531 170.449219 342.007812 178.894531 341.945312 C 180.71875 341.949219 182.539062 341.957031 184.417969 341.960938 C 190.445312 341.976562 196.472656 341.953125 202.5 341.929688 C 206.691406 341.929688 210.882812 341.929688 215.074219 341.933594 C 223.863281 341.933594 232.648438 341.914062 241.4375 341.886719 C 251.578125 341.851562 261.714844 341.84375 271.855469 341.855469 C 281.628906 341.863281 291.402344 341.855469 301.175781 341.835938 C 305.328125 341.832031 309.476562 341.828125 313.625 341.832031 C 319.429688 341.832031 325.234375 341.8125 331.039062 341.785156 C 332.75 341.789062 334.460938 341.792969 336.222656 341.796875 C 345.054688 341.730469 352.792969 341.421875 361.027344 338.050781 C 361.566406 336.425781 362.109375 334.800781 362.667969 333.128906 Z M 362.667969 333.128906 "/>
<path style=" stroke:none;fill-rule:nonzero;fill:rgb(19.607843%,4.313726%,3.137255%);fill-opacity:1;" d="M 257.539062 91.589844 C 258.90625 91.566406 260.277344 91.542969 261.6875 91.519531 C 266.519531 91.957031 269.796875 92.824219 274.050781 95.179688 C 276.289062 98.800781 276.289062 98.800781 277.847656 103.078125 C 278.648438 105.175781 278.648438 105.175781 279.46875 107.3125 C 280.636719 111.671875 280.832031 115.304688 280.617188 119.792969 C 279.53125 120.335938 278.449219 120.878906 277.332031 121.4375 C 277.171875 120.050781 277.011719 118.667969 276.847656 117.242188 C 276.601562 115.445312 276.355469 113.648438 276.101562 111.792969 C 275.875 110.003906 275.644531 108.214844 275.410156 106.371094 C 274.53125 101.597656 274.53125 101.597656 270.949219 99.578125 C 269.804688 99.207031 268.664062 98.839844 267.488281 98.460938 C 265.863281 97.921875 264.238281 97.378906 262.5625 96.820312 C 255.695312 96.164062 249.78125 95.597656 243.792969 99.28125 C 242.949219 100.09375 242.101562 100.90625 241.230469 101.742188 C 240.148438 101.742188 239.066406 101.742188 237.949219 101.742188 C 236.867188 108.242188 235.78125 114.742188 234.667969 121.4375 C 231.195312 114.492188 230.824219 113.609375 233.027344 106.667969 C 239.3125 94.664062 239.3125 94.664062 245.808594 92.609375 C 249.789062 91.828125 253.484375 91.621094 257.539062 91.589844 Z M 257.539062 91.589844 "/>
<path style=" stroke:none;fill-rule:nonzero;fill:rgb(62.352943%,27.843139%,25.882354%);fill-opacity:1;" d="M 374.152344 252.71875 C 375.238281 252.71875 376.320312 252.71875 377.4375 252.71875 C 377.671875 262.863281 376.976562 272.09375 375.039062 282.039062 C 374.792969 283.355469 374.542969 284.667969 374.289062 286.023438 C 373.769531 288.773438 373.242188 291.523438 372.707031 294.273438 C 371.894531 298.480469 371.105469 302.695312 370.320312 306.910156 C 369.808594 309.59375 369.296875 312.277344 368.78125 314.960938 C 368.546875 316.21875 368.3125 317.472656 368.070312 318.769531 C 366.949219 324.472656 365.933594 328.230469 362.667969 333.128906 C 362.578125 330.53125 362.515625 327.933594 362.460938 325.332031 C 362.421875 323.886719 362.386719 322.441406 362.347656 320.949219 C 362.667969 316.71875 362.667969 316.71875 364.195312 313.996094 C 366.695312 308.515625 367.277344 302.863281 368.0625 296.949219 C 368.242188 295.683594 368.417969 294.417969 368.601562 293.113281 C 369.164062 289.085938 369.710938 285.054688 370.257812 281.027344 C 370.636719 278.289062 371.015625 275.550781 371.398438 272.8125 C 372.328125 266.117188 373.246094 259.417969 374.152344 252.71875 Z M 374.152344 252.71875 "/>
<path style=" stroke:none;fill-rule:nonzero;fill:rgb(61.56863%,27.450982%,26.274511%);fill-opacity:1;" d="M 96.820312 144.410156 C 97.363281 144.410156 97.902344 144.410156 98.460938 144.410156 C 98.597656 146.40625 98.730469 148.402344 98.871094 150.460938 C 99.675781 157.234375 102.042969 160.671875 106.667969 165.742188 C 106.667969 166.828125 106.667969 167.910156 106.667969 169.027344 C 109.761719 169.28125 109.761719 169.28125 112.921875 169.539062 C 116.792969 169.855469 119.242188 170.328125 122.5625 172.359375 C 125.964844 177.457031 126.109375 183.070312 126.667969 189.027344 C 126.800781 190.222656 126.933594 191.421875 127.074219 192.65625 C 127.917969 200.679688 128.117188 208.550781 128 216.617188 C 125.554688 212.121094 124.140625 208.222656 123.320312 203.179688 C 123.109375 201.898438 122.898438 200.617188 122.679688 199.292969 C 122.472656 197.96875 122.265625 196.644531 122.050781 195.28125 C 121.832031 193.957031 121.609375 192.632812 121.382812 191.269531 C 120.425781 185.339844 119.792969 179.988281 119.792969 173.949219 C 117.207031 173.746094 117.207031 173.746094 114.5625 173.539062 C 107.738281 172.195312 104.964844 170.605469 100.101562 165.742188 C 97.054688 160.777344 96.445312 157.171875 96.617188 151.382812 C 96.644531 150.074219 96.675781 148.761719 96.707031 147.410156 C 96.742188 146.421875 96.78125 145.429688 96.820312 144.410156 Z M 96.820312 144.410156 "/>
<path style=" stroke:none;fill-rule:nonzero;fill:rgb(67.843139%,27.058825%,24.705882%);fill-opacity:1;" d="M 403.691406 137.847656 C 406.398438 137.847656 409.109375 137.847656 411.898438 137.847656 C 415.953125 144.96875 416.085938 151.144531 415.179688 159.179688 C 412.175781 166.691406 407.453125 170.144531 400.410156 173.949219 C 395.691406 174.359375 395.691406 174.359375 392.207031 173.949219 C 393.117188 173.542969 394.03125 173.136719 394.972656 172.71875 C 399.660156 170.183594 403.160156 167.867188 406.972656 164.101562 C 408.316406 158.382812 408.316406 158.382812 408.308594 152.207031 C 408.386719 150.132812 408.464844 148.058594 408.542969 145.921875 C 408.578125 143.550781 408.578125 143.550781 408.617188 141.128906 C 406.992188 140.046875 405.367188 138.960938 403.691406 137.847656 Z M 403.691406 137.847656 "/>
<path style=" stroke:none;fill-rule:nonzero;fill:rgb(69.803923%,28.235295%,23.137255%);fill-opacity:1;" d="M 136.207031 139.488281 C 139.488281 142.769531 139.488281 142.769531 139.867188 146.867188 C 139.84375 148.457031 139.820312 150.050781 139.792969 151.691406 C 139.785156 153.28125 139.773438 154.871094 139.761719 156.507812 C 139.488281 160.820312 139.488281 160.820312 137.847656 165.742188 C 141.636719 168.992188 145.425781 172.242188 149.332031 175.589844 C 147.707031 176.132812 146.085938 176.671875 144.410156 177.230469 C 140 174.871094 140 174.871094 136.207031 172.308594 C 132.332031 176.179688 132.117188 178.507812 131.28125 183.792969 C 130.199219 182.710938 129.117188 181.628906 128 180.511719 C 128.617188 176.207031 128.617188 176.207031 129.640625 172.308594 C 131.265625 171.765625 132.890625 171.226562 134.5625 170.667969 C 134.5625 165.25 134.5625 159.835938 134.5625 154.257812 C 135.648438 154.257812 136.730469 154.257812 137.847656 154.257812 C 137.304688 149.382812 136.761719 144.507812 136.207031 139.488281 Z M 136.207031 139.488281 "/>
<path style=" stroke:none;fill-rule:nonzero;fill:rgb(17.254902%,3.921569%,2.745098%);fill-opacity:1;" d="M 175.589844 188.71875 C 176.03125 189.765625 176.46875 190.816406 176.921875 191.898438 C 178.6875 195.824219 178.6875 195.824219 183.792969 196.921875 C 183.792969 198.546875 183.792969 200.171875 183.792969 201.847656 C 190.445312 203.457031 196.660156 203.621094 203.488281 203.488281 C 204.027344 202.402344 204.570312 201.320312 205.128906 200.207031 C 204.046875 199.664062 202.960938 199.121094 201.847656 198.5625 C 207.53125 197.75 207.53125 197.75 213.332031 196.921875 C 211.136719 201.101562 209.347656 204.425781 205.539062 207.28125 C 200.152344 208.925781 195.96875 208.992188 190.359375 208.410156 C 183.085938 204.402344 176.953125 199.03125 170.667969 193.640625 C 172.292969 192.015625 173.914062 190.390625 175.589844 188.71875 Z M 175.589844 188.71875 "/>
<path style=" stroke:none;fill-rule:nonzero;fill:rgb(19.607843%,3.137255%,2.352941%);fill-opacity:1;" d="M 239.589844 131.28125 C 240.671875 131.824219 241.757812 132.363281 242.871094 132.921875 C 241.972656 141.152344 239.191406 147.632812 235.382812 154.871094 C 234.203125 157.175781 233.019531 159.476562 231.839844 161.78125 C 230.921875 163.554688 230.921875 163.554688 229.988281 165.363281 C 226.839844 171.480469 223.785156 177.640625 220.71875 183.792969 C 219.605469 186.015625 218.496094 188.238281 217.382812 190.460938 C 216.191406 192.847656 216.191406 192.847656 214.972656 195.28125 C 213.441406 190.34375 213.261719 188.9375 214.972656 183.792969 C 216.058594 183.253906 217.140625 182.710938 218.257812 182.152344 C 219.535156 179.160156 220.683594 176.105469 221.742188 173.027344 C 222.613281 170.535156 222.613281 170.535156 223.5 167.992188 C 223.9375 166.710938 224.371094 165.425781 224.820312 164.101562 C 225.902344 164.101562 226.988281 164.101562 228.101562 164.101562 C 229.726562 158.6875 231.351562 153.273438 233.027344 147.691406 C 234.109375 147.691406 235.191406 147.691406 236.308594 147.691406 C 237.390625 142.277344 238.472656 136.863281 239.589844 131.28125 Z M 239.589844 131.28125 "/>
<path style=" stroke:none;fill-rule:nonzero;fill:rgb(16.862746%,3.921569%,3.921569%);fill-opacity:1;" d="M 388.921875 124.71875 C 392.714844 124.71875 396.503906 124.71875 400.410156 124.71875 C 400.410156 126.34375 400.410156 127.96875 400.410156 129.640625 C 404.742188 130.183594 409.074219 130.722656 413.539062 131.28125 C 413.773438 132.332031 414.011719 133.378906 414.257812 134.460938 C 414.867188 137.804688 414.867188 137.804688 416.820312 139.488281 C 416.941406 143.347656 416.957031 147.214844 416.921875 151.078125 C 416.910156 153.195312 416.894531 155.3125 416.878906 157.492188 C 416.859375 159.132812 416.839844 160.773438 416.820312 162.460938 C 415.738281 162.460938 414.65625 162.460938 413.539062 162.460938 C 413.558594 161.234375 413.578125 160.007812 413.597656 158.742188 C 413.609375 157.128906 413.625 155.511719 413.640625 153.847656 C 413.660156 152.246094 413.679688 150.648438 413.699219 149 C 413.554688 144.90625 413.421875 141.644531 411.898438 137.847656 C 410.273438 137.304688 408.648438 136.761719 406.972656 136.207031 C 406.972656 135.121094 406.972656 134.039062 406.972656 132.921875 C 397.226562 131.296875 397.226562 131.296875 387.28125 129.640625 C 387.824219 128.015625 388.363281 126.390625 388.921875 124.71875 Z M 388.921875 124.71875 "/>
<path style=" stroke:none;fill-rule:nonzero;fill:rgb(18.431373%,3.921569%,2.745098%);fill-opacity:1;" d="M 374.152344 275.691406 C 374.695312 275.691406 375.238281 275.691406 375.792969 275.691406 C 375.613281 281.335938 375.398438 286.976562 375.179688 292.617188 C 375.128906 294.21875 375.078125 295.820312 375.027344 297.472656 C 374.960938 299.011719 374.898438 300.550781 374.832031 302.132812 C 374.757812 304.261719 374.757812 304.261719 374.675781 306.429688 C 374.152344 310.152344 374.152344 310.152344 370.871094 315.078125 C 370.125 318.816406 370.125 318.816406 369.847656 322.769531 C 369.722656 324.09375 369.601562 325.421875 369.472656 326.789062 C 369.394531 327.796875 369.3125 328.804688 369.230469 329.847656 C 366.792969 330.660156 366.792969 330.660156 364.308594 331.488281 C 364.546875 330.148438 364.789062 328.804688 365.035156 327.425781 C 365.929688 322.414062 366.828125 317.40625 367.722656 312.398438 C 368.300781 309.175781 368.875 305.957031 369.453125 302.738281 C 369.816406 300.695312 370.183594 298.65625 370.558594 296.550781 C 370.894531 294.679688 371.226562 292.804688 371.574219 290.875 C 372.464844 285.816406 373.320312 280.757812 374.152344 275.691406 Z M 374.152344 275.691406 "/>
<path style=" stroke:none;fill-rule:nonzero;fill:rgb(15.686275%,4.313726%,3.921569%);fill-opacity:1;" d="M 384 218.257812 C 384.542969 218.257812 385.082031 218.257812 385.640625 218.257812 C 385.640625 224.753906 385.640625 231.253906 385.640625 237.949219 C 387.265625 237.40625 388.890625 236.867188 390.5625 236.308594 C 390.5625 240.097656 390.5625 243.890625 390.5625 247.792969 C 387.855469 247.253906 385.148438 246.710938 382.359375 246.152344 C 382.359375 249.402344 382.359375 252.652344 382.359375 256 C 381.277344 256 380.191406 256 379.078125 256 C 379.589844 251.863281 380.101562 247.726562 380.617188 243.589844 C 380.757812 242.433594 380.902344 241.277344 381.046875 240.085938 C 381.953125 232.796875 382.941406 225.523438 384 218.257812 Z M 384 218.257812 "/>
<path style=" stroke:none;fill-rule:nonzero;fill:rgb(62.7451%,27.843139%,26.666668%);fill-opacity:1;" d="M 262.5625 95.179688 C 249.574219 101.742188 249.574219 101.742188 242.871094 101.742188 C 242.332031 103.367188 241.789062 104.992188 241.230469 106.667969 C 240.148438 106.667969 239.066406 106.667969 237.949219 106.667969 C 237.773438 115.066406 238.421875 122.960938 239.589844 131.28125 C 235.1875 126.265625 234.023438 123.167969 234.152344 116.511719 C 234.160156 115.125 234.167969 113.738281 234.171875 112.308594 C 235 105.59375 237.089844 102.5 242.152344 98.050781 C 249.28125 94.421875 254.738281 94.554688 262.5625 95.179688 Z M 262.5625 95.179688 "/>
<path style=" stroke:none;fill-rule:nonzero;fill:rgb(65.882355%,26.666668%,24.705882%);fill-opacity:1;" d="M 234.667969 152.617188 C 235.75 154.238281 236.832031 155.863281 237.949219 157.539062 C 236.867188 157.539062 235.78125 157.539062 234.667969 157.539062 C 234.667969 160.246094 234.667969 162.953125 234.667969 165.742188 C 233.582031 165.742188 232.5 165.742188 231.382812 165.742188 C 231.925781 170.074219 232.46875 174.410156 233.027344 178.871094 C 230.859375 178.871094 228.691406 178.871094 226.460938 178.871094 C 226.460938 179.953125 226.460938 181.039062 226.460938 182.152344 C 224.835938 182.152344 223.210938 182.152344 221.539062 182.152344 C 223.75 175 226.542969 168.511719 229.949219 161.847656 C 230.832031 160.105469 231.71875 158.367188 232.628906 156.578125 C 233.300781 155.269531 233.972656 153.960938 234.667969 152.617188 Z M 234.667969 152.617188 "/>
<path style=" stroke:none;fill-rule:nonzero;fill:rgb(16.078432%,3.921569%,3.137255%);fill-opacity:1;" d="M 361.027344 177.230469 C 352.734375 184.976562 344.902344 191.75 334.769531 196.921875 C 336 193.027344 336 193.027344 338.050781 188.71875 C 340.226562 187.597656 342.414062 186.503906 344.617188 185.4375 C 345.78125 183.355469 345.78125 183.355469 346.972656 181.230469 C 349.539062 177.230469 349.539062 177.230469 353.742188 175.792969 C 357.742188 175.589844 357.742188 175.589844 361.027344 177.230469 Z M 361.027344 177.230469 "/>
<path style=" stroke:none;fill-rule:nonzero;fill:rgb(18.82353%,3.529412%,1.960784%);fill-opacity:1;" d="M 96.820312 159.179688 C 98.191406 161.058594 98.191406 161.058594 99.589844 162.972656 C 105.449219 169.78125 110.9375 172.683594 119.792969 173.949219 C 123.867188 189.390625 123.867188 189.390625 121.4375 196.921875 C 120.894531 196.921875 120.351562 196.921875 119.792969 196.921875 C 118.710938 190.425781 117.628906 183.925781 116.511719 177.230469 C 114.785156 176.789062 113.058594 176.351562 111.28125 175.898438 C 101.230469 172.765625 101.230469 172.765625 96.820312 169.027344 C 96.308594 163.792969 96.308594 163.792969 96.820312 159.179688 Z M 96.820312 159.179688 "/>
<path style=" stroke:none;fill-rule:nonzero;fill:rgb(60.784316%,27.843139%,25.882354%);fill-opacity:1;" d="M 128 131.28125 C 132.921875 135.488281 132.921875 135.488281 136.207031 139.488281 C 132.957031 139.488281 129.707031 139.488281 126.359375 139.488281 C 125.816406 137.320312 125.277344 135.15625 124.71875 132.921875 C 111.144531 134.921875 111.144531 134.921875 100.101562 142.769531 C 102.394531 137.234375 104.898438 134.496094 109.949219 131.28125 C 116.257812 129.179688 121.6875 129.429688 128 131.28125 Z M 128 131.28125 "/>
<path style=" stroke:none;fill-rule:nonzero;fill:rgb(17.647059%,4.313726%,3.137255%);fill-opacity:1;" d="M 390.5625 183.792969 C 391.105469 183.792969 391.648438 183.792969 392.207031 183.792969 C 392.636719 197.320312 391.558594 209.90625 388.921875 223.179688 C 385.886719 218.0625 385.324219 214.90625 386.050781 209.027344 C 386.226562 207.605469 386.402344 206.183594 386.582031 204.71875 C 387.671875 197.691406 389.042969 190.738281 390.5625 183.792969 Z M 390.5625 183.792969 "/>
<path style=" stroke:none;fill-rule:nonzero;fill:rgb(64.705884%,29.019609%,26.666668%);fill-opacity:1;" d="M 382.359375 210.050781 C 383.441406 210.050781 384.523438 210.050781 385.640625 210.050781 C 384.882812 221.8125 383.890625 233.132812 380.71875 244.511719 C 379.636719 245.054688 378.550781 245.597656 377.4375 246.152344 C 377.941406 241.367188 378.457031 236.582031 378.972656 231.792969 C 379.117188 230.441406 379.261719 229.085938 379.40625 227.691406 C 379.550781 226.378906 379.691406 225.070312 379.839844 223.71875 C 379.96875 222.515625 380.097656 221.3125 380.230469 220.070312 C 380.714844 216.644531 381.457031 213.390625 382.359375 210.050781 Z M 382.359375 210.050781 "/>
<path style=" stroke:none;fill-rule:nonzero;fill:rgb(58.039218%,25.490198%,23.921569%);fill-opacity:1;" d="M 398.769531 129.640625 C 403.589844 131.28125 403.589844 131.28125 406.972656 132.921875 C 401.894531 134.617188 399.546875 134.523438 394.359375 133.847656 C 393.03125 133.679688 391.707031 133.511719 390.339844 133.339844 C 389.332031 133.203125 388.320312 133.066406 387.28125 132.921875 C 387.824219 134.546875 388.363281 136.171875 388.921875 137.847656 C 384.476562 140.070312 380.703125 139.59375 375.792969 139.488281 C 383.941406 131.128906 386.957031 129.039062 398.769531 129.640625 Z M 398.769531 129.640625 "/>
<path style=" stroke:none;fill-rule:nonzero;fill:rgb(60.000002%,28.627452%,26.666668%);fill-opacity:1;" d="M 262.5625 96.820312 C 268.804688 97.710938 271.59375 100.359375 275.691406 105.027344 C 277.601562 108.84375 277.605469 111.242188 277.640625 115.488281 C 277.664062 116.753906 277.6875 118.015625 277.710938 119.320312 C 277.296875 123.433594 276.105469 126.085938 274.050781 129.640625 C 272.410156 124.71875 272.410156 124.71875 273.230469 120.101562 C 274.121094 114.433594 274.035156 110.527344 272.410156 105.027344 C 269.292969 102.988281 269.292969 102.988281 265.847656 101.742188 C 264.761719 100.117188 263.679688 98.496094 262.5625 96.820312 Z M 262.5625 96.820312 "/>
<path style=" stroke:none;fill-rule:nonzero;fill:rgb(19.215687%,3.137255%,2.352941%);fill-opacity:1;" d="M 329.847656 196.921875 C 330.929688 196.921875 332.011719 196.921875 333.128906 196.921875 C 331.152344 202.84375 328.628906 204.222656 323.242188 207.101562 C 318.113281 209.171875 313.9375 209.140625 308.511719 208.410156 C 305.71875 205.902344 305.71875 205.902344 303.589844 203.488281 C 304.71875 203.507812 305.84375 203.523438 307.007812 203.542969 C 309.222656 203.566406 309.222656 203.566406 311.488281 203.589844 C 313.6875 203.617188 313.6875 203.617188 315.929688 203.648438 C 320.882812 203.453125 323.925781 202.84375 327.488281 199.28125 C 328.265625 198.503906 329.042969 197.726562 329.847656 196.921875 Z M 329.847656 196.921875 "/>
<path style=" stroke:none;fill-rule:nonzero;fill:rgb(64.705884%,27.843139%,26.666668%);fill-opacity:1;" d="M 390.5625 175.589844 C 391.105469 175.589844 391.648438 175.589844 392.207031 175.589844 C 391.453125 186.339844 390.21875 196.390625 387.28125 206.769531 C 386.742188 206.769531 386.199219 206.769531 385.640625 206.769531 C 383.242188 194.378906 385.074219 186.871094 390.5625 175.589844 Z M 390.5625 175.589844 "/>
<path style=" stroke:none;fill-rule:nonzero;fill:rgb(65.098041%,28.235295%,27.450982%);fill-opacity:1;" d="M 356.101562 180.511719 C 356.101562 182.136719 356.101562 183.761719 356.101562 185.4375 C 354.476562 186.25 354.476562 186.25 352.820312 187.078125 C 352.277344 188.703125 351.738281 190.324219 351.179688 192 C 347.898438 193.640625 344.617188 195.28125 341.332031 196.921875 C 340.792969 198.546875 340.25 200.171875 339.691406 201.847656 C 337.527344 200.761719 335.359375 199.679688 333.128906 198.5625 C 340.710938 192.605469 348.292969 186.648438 356.101562 180.511719 Z M 356.101562 180.511719 "/>
<path style=" stroke:none;fill-rule:nonzero;fill:rgb(68.627453%,28.235295%,25.490198%);fill-opacity:1;" d="M 116.511719 132.921875 C 115.382812 136 115.382812 136 113.230469 139.488281 C 109.128906 141.332031 109.128906 141.332031 105.027344 142.769531 C 100.492188 147.300781 100.792969 151.3125 100.101562 157.539062 C 99.5625 157.539062 99.019531 157.539062 98.460938 157.539062 C 97.640625 152.398438 97.355469 147.878906 98.460938 142.769531 C 103.472656 136.988281 108.753906 132.921875 116.511719 132.921875 Z M 116.511719 132.921875 "/>
<path style=" stroke:none;fill-rule:nonzero;fill:rgb(65.098041%,26.666668%,25.490198%);fill-opacity:1;" d="M 292.101562 187.078125 C 296.90625 193.320312 301.699219 199.707031 305.230469 206.769531 C 302.523438 206.769531 299.816406 206.769531 297.027344 206.769531 C 296.191406 204.722656 295.375 202.671875 294.5625 200.617188 C 294.105469 199.472656 293.648438 198.332031 293.179688 197.152344 C 292.101562 193.640625 292.101562 193.640625 292.101562 187.078125 Z M 292.101562 187.078125 "/>
<path style=" stroke:none;fill-rule:nonzero;fill:rgb(23.137255%,4.313726%,3.921569%);fill-opacity:1;" d="M 370.871094 146.050781 C 371.414062 146.050781 371.953125 146.050781 372.511719 146.050781 C 372.789062 148.375 373.0625 150.699219 373.332031 153.027344 C 373.484375 154.320312 373.636719 155.613281 373.792969 156.949219 C 374.152344 160.820312 374.152344 160.820312 374.152344 167.382812 C 370.90625 169.007812 370.90625 169.007812 367.589844 170.667969 C 368.597656 162.445312 369.675781 154.246094 370.871094 146.050781 Z M 370.871094 146.050781 "/>
<path style=" stroke:none;fill-rule:nonzero;fill:rgb(61.176473%,27.058825%,25.490198%);fill-opacity:1;" d="M 218.257812 185.4375 C 219.339844 185.4375 220.421875 185.4375 221.539062 185.4375 C 220.433594 191.695312 219.140625 197.640625 216.617188 203.488281 C 213.128906 204.921875 213.128906 204.921875 210.050781 205.128906 C 212.203125 198.179688 214.882812 191.878906 218.257812 185.4375 Z M 218.257812 185.4375 "/>
<path style=" stroke:none;fill-rule:nonzero;fill:rgb(22.745098%,5.490196%,3.921569%);fill-opacity:1;" d="M 103.382812 131.28125 C 106.769531 132 106.769531 132 109.949219 132.921875 C 108.664062 133.90625 107.375 134.886719 106.050781 135.898438 C 98.773438 141.960938 97.855469 146.75 96.820312 155.898438 C 96.277344 155.898438 95.738281 155.898438 95.179688 155.898438 C 94.484375 145.835938 95.183594 141.074219 101.742188 132.921875 C 102.285156 132.382812 102.828125 131.839844 103.382812 131.28125 Z M 103.382812 131.28125 "/>
<path style=" stroke:none;fill-rule:nonzero;fill:rgb(18.431373%,4.313726%,3.137255%);fill-opacity:1;" d="M 406.972656 170.667969 C 406.972656 172.292969 406.972656 173.914062 406.972656 175.589844 C 404.234375 176.300781 404.234375 176.300781 401.4375 177.027344 C 395.480469 178.367188 395.480469 178.367188 392.207031 182.152344 C 392.207031 179.445312 392.207031 176.738281 392.207031 173.949219 C 403.28125 170.667969 403.28125 170.667969 406.972656 170.667969 Z M 406.972656 170.667969 "/>
<path style=" stroke:none;fill-rule:nonzero;fill:rgb(61.56863%,28.235295%,26.274511%);fill-opacity:1;" d="M 136.207031 139.488281 C 139.488281 142.769531 139.488281 142.769531 139.921875 146.921875 C 139.910156 149.335938 139.910156 149.335938 139.898438 151.792969 C 139.90625 153.402344 139.914062 155.011719 139.921875 156.667969 C 139.488281 160.820312 139.488281 160.820312 136.207031 164.101562 C 134.5625 162.460938 134.5625 162.460938 134.460938 158.257812 C 134.496094 156.9375 134.527344 155.617188 134.5625 154.257812 C 135.648438 154.257812 136.730469 154.257812 137.847656 154.257812 C 137.304688 149.382812 136.761719 144.507812 136.207031 139.488281 Z M 136.207031 139.488281 "/>
<path style=" stroke:none;fill-rule:nonzero;fill:rgb(16.078432%,2.745098%,2.352941%);fill-opacity:1;" d="M 114.871094 126.359375 C 122.824219 127.328125 128.996094 129.605469 136.207031 132.921875 C 135.664062 134.546875 135.121094 136.171875 134.5625 137.847656 C 133.394531 136.730469 133.394531 136.730469 132.207031 135.589844 C 126.265625 131.824219 120.085938 130.886719 113.230469 129.640625 C 113.773438 128.558594 114.3125 127.476562 114.871094 126.359375 Z M 114.871094 126.359375 "/>
<path style=" stroke:none;fill-rule:nonzero;fill:rgb(61.176473%,25.490198%,24.313726%);fill-opacity:1;" d="M 328.207031 201.847656 C 329.828125 202.386719 331.453125 202.929688 333.128906 203.488281 C 329.847656 208.410156 329.847656 208.410156 327.179688 209.539062 C 321.476562 210.289062 315.902344 210.148438 310.152344 210.050781 C 310.152344 209.507812 310.152344 208.96875 310.152344 208.410156 C 313.25 207.699219 313.25 207.699219 316.410156 206.972656 C 321.402344 205.828125 323.785156 204.792969 328.207031 201.847656 Z M 328.207031 201.847656 "/>
<path style=" stroke:none;fill-rule:nonzero;fill:rgb(19.215687%,4.705882%,3.137255%);fill-opacity:1;" d="M 132.921875 252.71875 C 133.464844 252.71875 134.007812 252.71875 134.5625 252.71875 C 135.648438 260.300781 136.730469 267.882812 137.847656 275.691406 C 136.222656 275.152344 134.597656 274.609375 132.921875 274.050781 C 132.921875 267.011719 132.921875 259.972656 132.921875 252.71875 Z M 132.921875 252.71875 "/>
<path style=" stroke:none;fill-rule:nonzero;fill:rgb(25.490198%,6.27451%,5.098039%);fill-opacity:1;" d="M 139.488281 146.050781 C 143.820312 154.152344 143.148438 160.179688 141.128906 169.027344 C 139.503906 167.402344 137.878906 165.777344 136.207031 164.101562 C 136.746094 163.019531 137.289062 161.9375 137.847656 160.820312 C 138.214844 158.296875 138.515625 155.765625 138.769531 153.230469 C 138.90625 151.890625 139.042969 150.546875 139.1875 149.167969 C 139.285156 148.136719 139.382812 147.109375 139.488281 146.050781 Z M 139.488281 146.050781 "/>
<path style=" stroke:none;fill-rule:nonzero;fill:rgb(61.56863%,27.058825%,25.882354%);fill-opacity:1;" d="M 265.847656 131.28125 C 267.472656 131.824219 269.09375 132.363281 270.769531 132.921875 C 270.769531 135.089844 270.769531 137.253906 270.769531 139.488281 C 271.785156 142.792969 272.867188 146.082031 274.050781 149.332031 C 272.96875 149.332031 271.886719 149.332031 270.769531 149.332031 C 266.101562 143.230469 265.316406 138.875 265.847656 131.28125 Z M 265.847656 131.28125 "/>
<path style=" stroke:none;fill-rule:nonzero;fill:rgb(64.313728%,27.450982%,26.666668%);fill-opacity:1;" d="M 136.207031 165.742188 C 140.539062 168.992188 144.871094 172.242188 149.332031 175.589844 C 147.707031 176.132812 146.085938 176.671875 144.410156 177.230469 C 140 174.359375 140 174.359375 136.207031 170.667969 C 136.207031 169.042969 136.207031 167.417969 136.207031 165.742188 Z M 136.207031 165.742188 "/>
<path style=" stroke:none;fill-rule:nonzero;fill:rgb(59.215689%,27.058825%,24.705882%);fill-opacity:1;" d="M 234.667969 152.617188 C 235.75 154.238281 236.832031 155.863281 237.949219 157.539062 C 236.867188 157.539062 235.78125 157.539062 234.667969 157.539062 C 234.667969 160.246094 234.667969 162.953125 234.667969 165.742188 C 233.582031 165.742188 232.5 165.742188 231.382812 165.742188 C 231.382812 166.828125 231.382812 167.910156 231.382812 169.027344 C 230.300781 169.027344 229.21875 169.027344 228.101562 169.027344 C 228.882812 166.597656 229.671875 164.167969 230.460938 161.742188 C 230.898438 160.390625 231.335938 159.039062 231.789062 157.648438 C 233.027344 154.257812 233.027344 154.257812 234.667969 152.617188 Z M 234.667969 152.617188 "/>
<path style=" stroke:none;fill-rule:nonzero;fill:rgb(59.607846%,28.627452%,26.666668%);fill-opacity:1;" d="M 406.972656 164.101562 C 408.597656 164.644531 410.222656 165.1875 411.898438 165.742188 C 405.523438 171.730469 400.882812 173.269531 392.207031 173.949219 C 393.117188 173.542969 394.03125 173.136719 394.972656 172.71875 C 399.03125 170.695312 399.03125 170.695312 402.972656 167.078125 C 404.292969 166.09375 405.613281 165.113281 406.972656 164.101562 Z M 406.972656 164.101562 "/>
<path style=" stroke:none;fill-rule:nonzero;fill:rgb(17.254902%,3.529412%,2.352941%);fill-opacity:1;" d="M 278.972656 157.539062 C 285.539062 160.820312 285.539062 160.820312 287.589844 165.949219 C 287.996094 167.503906 288.402344 169.0625 288.820312 170.667969 C 287.738281 171.75 286.65625 172.832031 285.539062 173.949219 C 283.371094 168.535156 281.207031 163.117188 278.972656 157.539062 Z M 278.972656 157.539062 "/>
<path style=" stroke:none;fill-rule:nonzero;fill:rgb(13.333334%,1.568628%,1.568628%);fill-opacity:1;" d="M 139.488281 142.769531 C 141.113281 142.769531 142.738281 142.769531 144.410156 142.769531 C 144.410156 148.726562 144.410156 154.683594 144.410156 160.820312 C 143.867188 160.820312 143.328125 160.820312 142.769531 160.820312 C 141.6875 154.863281 140.601562 148.90625 139.488281 142.769531 Z M 139.488281 142.769531 "/>
<path style=" stroke:none;fill-rule:nonzero;fill:rgb(62.352943%,27.058825%,24.313726%);fill-opacity:1;" d="M 342.972656 190.359375 C 342.972656 195.457031 342.089844 197.5 339.691406 201.847656 C 337.527344 200.761719 335.359375 199.679688 333.128906 198.5625 C 336.378906 195.855469 339.625 193.148438 342.972656 190.359375 Z M 342.972656 190.359375 "/>
<path style=" stroke:none;fill-rule:nonzero;fill:rgb(58.039218%,24.313726%,22.745098%);fill-opacity:1;" d="M 242.871094 132.921875 C 243.414062 132.921875 243.953125 132.921875 244.511719 132.921875 C 245.054688 136.714844 245.597656 140.503906 246.152344 144.410156 C 243.445312 145.492188 240.738281 146.578125 237.949219 147.691406 C 239.574219 142.820312 241.199219 137.945312 242.871094 132.921875 Z M 242.871094 132.921875 "/>
</g>
</svg>
